<?xml version="1.0" encoding="UTF-8"?>
<svg viewBox="0 0 154.18387 224.77461" xmlns="http://www.w3.org/2000/svg">
 <g transform="translate(-242.91 -654.14)" stroke="#000" stroke-dashoffset="3.003" stroke-linecap="round" stroke-linejoin="round">
  <path d="m255.24 673.5c-9.0839 0.88388-10.98 7.5287-11.076 11.699-1.2834 55.704 2.8412 120.8 2.1529 178.21 0.0714 5.4604 3.1039 14.95 14.091 14.481l123-0.59857c9.2334 0.33079 12.305-3.6116 11.866-15.442l0.82824-170.67c-0.0327-6.6256-1.7706-14.773-11.479-14.621z" fill="#fff" stroke-width="2"/>
  <path d="m256.83 685.28 1.3317 176.41 121.72-1.1676 1.7413-174.62z" fill="#fff"/>
  <path d="m323.17 654.64c-7.529 0-13.652 5.2908-13.652 11.79 0 0.36289 0.0468 0.69815 0.084 1.0527l-16.676 0.0842c-7.133 4.58-11.464 15.594-8.527 24.211l75.945-0.46318c2.0583-5.6875 1.4623-16.385-8.275-24.043l-15.332 0.0842c0.0289-0.31284 0.0419-0.60709 0.0419-0.92635 0-6.499-6.0806-11.79-13.61-11.79z" fill="#fff"/>
  <path d="m269.02 712.4 0.25951 18.025 16.695-0.48089 0.58686-17.614z" fill="#fff"/>
  <path d="m293.54 721.87h70.651" fill="#fff"/>
  <path d="m269.53 739.24 0.2524 17.529 16.238-0.46766 0.5708-17.13z" fill="#fff"/>
  <path d="m293.54 746.14h70.651" fill="#fff"/>
  <path d="m292.53 774.39h70.651" fill="#fff"/>
  <path d="m269.25 792.68 0.2633 18.279 16.939-0.48767 0.59545-17.863z" fill="#fff"/>
  <path d="m293.24 801.02h67.646" fill="#fff"/>
  <path d="m269.55 818.86 0.26973 18.726 17.354-0.49959 0.61001-18.299z" fill="#fff"/>
  <path d="m292.62 827.23h70.651" fill="#fff"/>
  <path transform="matrix(.18239 0 0 .15133 231.54 538.28)" d="m523.17 839.03c0 14.587-12.28 26.413-27.429 26.413s-27.429-11.825-27.429-26.413 12.28-26.413 27.429-26.413 27.429 11.825 27.429 26.413z" fill="none" stroke-width="6.0192"/>
  <path d="m271.54 720.42 2.3447-2.1257 2.2425 4.4416c4.6551-5.1805 6.1502-8.1925 9.4543-11.363l3.523 3.1847c-3.6186 2.511-7.2941 7.3165-13.236 13.032z" fill="#fff"/>
  <path d="m283.74 683.62 77.58-0.35916" fill="#fff"/>
  <path d="m269.57 766.54 0.25163 17.472 16.188-0.46614 0.56903-17.074z" fill="#fff"/>
  <path d="m272.81 746.07 2.3447-2.1257 2.2425 4.4416c4.6551-5.1805 6.1502-8.1925 9.4543-11.363l3.523 3.1847c-3.6186 2.511-7.2941 7.3165-13.236 13.032z" fill="#fff"/>
  <path d="m272.81 772.73 2.3447-2.1257 2.2425 4.4416c4.6551-5.1805 6.1502-8.1925 9.4543-11.363l3.523 3.1847c-3.6186 2.511-7.2941 7.3165-13.236 13.032z" fill="#fff"/>
 </g>
</svg>
